<?xml version="1.0" standalone="no"?>
<!DOCTYPE svg PUBLIC "-//W3C//DTD SVG 20010904//EN"
 "http://www.w3.org/TR/2001/REC-SVG-20010904/DTD/svg10.dtd">
<svg version="1.0" xmlns="http://www.w3.org/2000/svg"
 width="280.000000pt" height="622.000000pt" viewBox="0 0 280.000000 622.000000"
 preserveAspectRatio="xMidYMid meet">
<metadata>
Created by potrace 1.16, written by Peter Selinger 2001-2019
</metadata>
<g transform="translate(0.000000,622.000000) scale(0.100000,-0.100000)"
fill="#000000" stroke="none">
<path d="M2035 6044 c-11 -8 -19 -24 -17 -35 5 -32 -35 -110 -53 -103 -11 5
-15 -1 -15 -25 0 -28 -3 -31 -32 -31 -41 0 -24 -21 18 -22 28 -1 29 -3 29 -49
0 -42 -2 -48 -20 -46 -14 1 -20 -4 -19 -15 1 -10 -3 -18 -8 -18 -6 0 -8 -13
-4 -32 3 -20 3 -28 -3 -20 -6 11 -10 9 -14 -7 -3 -12 -11 -21 -19 -20 -10 0
-10 2 0 6 6 2 12 12 12 21 0 14 -2 14 -14 2 -17 -18 -31 -74 -17 -66 6 4 15
-2 20 -13 8 -14 7 -20 -4 -25 -8 -3 -15 0 -15 7 0 13 -49 15 -70 2 -9 -6 -7
-11 11 -20 12 -7 29 -11 36 -8 7 3 13 0 13 -6 0 -6 -12 -11 -27 -11 -27 -1
-27 -1 -8 -16 20 -15 20 -16 -4 -12 -20 2 -26 -3 -37 -32 -11 -30 -13 -32 -13
-11 -1 24 -1 24 -16 5 -8 -10 -15 -27 -15 -38 0 -15 3 -16 15 -6 9 8 15 9 15
2 0 -6 -4 -13 -9 -16 -5 -3 -12 -18 -16 -33 -3 -15 -11 -31 -17 -34 -13 -8 -1
-79 13 -79 6 0 7 -4 4 -10 -3 -5 -2 -10 4 -10 5 0 12 5 14 10 3 6 4 5 3 -2 -1
-8 -21 -14 -45 -16 -45 -3 -47 -22 -3 -22 23 -1 25 -2 9 -11 -9 -5 -21 -8 -26
-5 -15 9 -41 -5 -41 -21 0 -10 6 -13 18 -8 51 20 144 37 153 28 12 -12 0 -45
-14 -36 -5 3 -7 1 -4 -4 8 -13 -17 -75 -45 -113 -12 -17 -17 -33 -13 -41 5 -7
4 -10 -2 -6 -6 4 -13 -6 -16 -23 -8 -37 -28 -42 -211 -49 -12 -1 -16 -4 -10
-9 5 -5 42 -6 82 -3 44 4 77 2 83 -4 7 -7 13 -4 20 8 6 9 19 17 29 17 23 0 24
-1 8 -35 -12 -26 -23 -32 -33 -15 -3 6 -14 10 -23 10 -26 0 0 -19 36 -26 29
-6 32 -4 32 18 0 14 10 37 21 52 12 15 19 30 15 33 -3 4 -6 2 -6 -4 0 -5 -7
-10 -15 -10 -13 0 -13 2 0 17 9 10 13 24 10 32 -3 8 4 26 15 39 12 13 19 18
15 12 -3 -7 -1 -13 4 -13 6 0 11 12 11 28 0 15 12 50 26 77 13 28 23 41 20 30
-3 -11 -8 -38 -11 -59 -2 -22 -10 -43 -16 -47 -7 -4 -9 -16 -6 -28 4 -15 0
-21 -11 -21 -15 0 -15 -2 -2 -10 12 -8 10 -10 -10 -11 -14 0 -20 -3 -13 -5 7
-3 9 -13 6 -22 -6 -14 -4 -15 8 -6 11 9 17 9 26 -1 9 -10 8 -14 -8 -18 -10 -3
-19 -10 -19 -16 0 -9 5 -9 20 -1 31 17 24 -4 -11 -29 -37 -28 -32 -39 8 -15
26 17 27 17 12 0 -19 -20 -14 -66 7 -66 8 0 14 -5 14 -11 0 -5 4 -8 9 -5 5 4
-2 -17 -15 -44 -14 -29 -35 -55 -49 -62 -14 -6 -25 -15 -25 -20 0 -5 -10 -19
-22 -31 -34 -33 -77 -127 -57 -127 5 0 12 13 15 30 4 16 9 29 13 28 22 -2 33
5 43 30 6 15 11 30 10 35 -3 11 13 8 27 -5 11 -11 13 -10 8 4 -4 10 1 18 12
21 14 3 17 -2 17 -25 0 -23 -3 -27 -19 -22 -15 5 -19 3 -14 -9 3 -9 9 -32 13
-51 5 -27 3 -36 -7 -36 -11 0 -11 -2 1 -10 9 -6 17 -5 23 3 6 8 7 7 4 -4 -3
-9 0 -22 6 -28 9 -9 8 -11 -4 -6 -10 4 -16 0 -16 -10 0 -8 4 -16 9 -16 4 -1
12 -2 17 -3 5 0 12 -4 16 -8 4 -4 17 -3 30 2 20 8 22 6 17 -12 -4 -17 -2 -20
12 -15 9 4 14 3 11 -2 -3 -5 -1 -12 5 -16 5 -3 10 1 10 9 0 8 5 18 12 22 7 4
8 3 4 -4 -4 -7 -2 -12 4 -12 6 0 9 -4 5 -9 -3 -5 0 -13 6 -17 9 -5 10 0 7 14
-8 29 -1 28 29 -4 13 -14 20 -31 17 -37 -4 -7 -3 -9 1 -4 5 4 20 0 34 -9 l26
-16 -22 23 c-55 60 -63 70 -63 85 0 9 -5 12 -12 8 -6 -4 -8 -3 -5 3 4 6 1 26
-7 44 -7 19 -19 72 -26 119 -14 98 -14 97 -37 130 -10 13 -13 21 -6 17 16 -10
28 12 14 26 -6 6 -11 16 -11 22 0 5 5 3 10 -5 7 -10 10 13 10 74 0 75 -2 87
-15 82 -13 -4 -13 -2 -5 14 5 10 10 74 10 142 0 106 7 231 25 443 8 101 17
135 41 154 26 21 32 36 10 28 -16 -6 -29 51 -15 68 4 6 4 17 -1 24 -8 14 5 65
22 87 4 6 6 18 2 27 -7 18 8 48 48 100 26 32 27 37 11 37 -10 0 -27 -7 -38
-16z"/>
<path d="M439 5103 c0 -43 -2 -100 -4 -128 -5 -73 -6 -654 -1 -692 8 -53 28
-113 37 -107 5 3 9 0 9 -7 0 -7 3 -10 6 -7 3 4 -3 21 -12 40 -19 34 -21 127
-22 831 0 81 -3 147 -6 147 -3 0 -6 -35 -7 -77z"/>
<path d="M2337 4463 c-4 -3 -7 -43 -7 -87 -1 -135 -45 -201 -108 -158 -39 27
-52 34 -52 28 0 -3 18 -19 40 -35 24 -17 35 -31 28 -33 -8 -3 0 -11 17 -20 17
-9 41 -28 54 -42 14 -14 28 -26 32 -26 11 0 79 -68 79 -80 0 -5 7 -10 15 -10
8 0 15 -8 15 -17 0 -9 3 -13 7 -10 8 8 33 -11 33 -25 0 -6 -6 -6 -14 1 -11 9
-15 8 -20 -5 -5 -13 -9 -15 -18 -6 -17 17 -28 15 -21 -5 4 -10 2 -14 -4 -10
-6 4 -16 0 -22 -7 -13 -15 -90 -37 -131 -36 -14 0 -58 -1 -97 -2 -42 -2 -75 1
-77 7 -3 6 -5 4 -5 -2 -1 -7 -7 -13 -14 -13 -17 0 -67 -23 -67 -31 0 -4 6 -9
14 -12 7 -3 16 -15 19 -27 5 -20 4 -21 -12 -6 -20 18 -41 21 -41 6 0 -5 3 -10
8 -10 4 0 12 -12 19 -27 19 -45 32 -103 23 -103 -10 0 -20 25 -20 51 0 10 -9
28 -19 38 -11 11 -17 22 -14 24 3 3 -3 21 -14 39 -10 18 -19 35 -20 37 -1 2
-10 -5 -20 -15 -16 -16 -16 -17 -1 -11 10 3 20 2 23 -3 3 -5 -12 -13 -35 -16
-22 -4 -40 -12 -40 -19 0 -28 23 -75 37 -75 8 0 11 -4 8 -10 -7 -12 -36 -14
-33 -2 3 15 -45 111 -59 116 -16 7 -15 1 20 -89 17 -42 28 -59 40 -57 8 1 18
-1 21 -6 3 -5 -7 -9 -22 -10 -24 0 -29 6 -52 66 l-25 67 -76 3 -76 3 7 -39 c9
-49 17 -62 38 -62 15 0 15 -2 2 -10 -36 -23 -43 -13 -55 71 -4 34 -11 48 -25
52 -13 3 -17 1 -13 -10 4 -11 -1 -14 -18 -13 -13 1 -52 2 -85 1 -55 -1 -62 -4
-69 -23 -3 -13 -9 -18 -11 -11 -3 7 -1 21 5 31 9 16 22 20 77 21 37 0 70 4 73
7 3 3 -32 5 -79 4 -47 -2 -93 1 -102 5 -10 4 -23 5 -30 2 -8 -4 -5 -8 10 -12
24 -8 31 -48 10 -61 -7 -5 -8 -3 -3 6 13 21 -16 30 -97 29 l-76 -1 -7 -46 c-4
-30 -3 -47 5 -52 8 -5 9 -10 2 -14 -18 -11 -28 22 -22 76 l5 53 60 6 c70 7 59
10 -48 13 -43 2 -80 -1 -83 -5 -3 -5 7 -9 21 -9 26 0 26 0 20 -57 -4 -32 -9
-66 -11 -75 -4 -15 2 -18 33 -19 21 -1 51 -2 67 -4 56 -4 66 3 66 51 0 44 0
44 -35 44 -24 0 -35 -5 -35 -15 0 -8 9 -15 20 -15 13 0 20 -7 20 -19 0 -22
-16 -36 -24 -22 -4 5 -1 13 6 17 9 6 5 10 -12 14 -18 4 -25 13 -25 30 0 23 4
25 50 25 l50 0 1 -52 c2 -65 9 -84 29 -77 10 4 15 20 15 49 0 24 5 47 10 50 6
4 10 -10 10 -33 l0 -40 48 -4 c26 -1 62 -2 80 0 33 3 33 4 30 50 -2 38 -7 47
-20 46 -10 -1 -18 2 -18 7 0 5 9 9 20 9 24 0 40 -35 40 -84 0 -19 6 -39 14
-45 25 -21 29 25 10 117 -2 12 0 22 6 22 5 0 10 -17 10 -37 0 -51 28 -93 55
-82 11 4 42 8 69 8 l49 1 -7 43 c-4 23 -14 48 -23 55 -15 11 -15 12 -1 12 11
0 22 -17 31 -47 26 -83 27 -92 6 -98 -10 -4 -19 -11 -19 -17 0 -6 -2 -9 -5 -6
-3 3 -18 -6 -34 -21 -15 -14 -50 -44 -77 -66 -44 -36 -117 -100 -152 -132 -17
-16 -22 -16 -36 1 -6 7 -54 49 -106 92 -52 43 -114 95 -137 116 -30 27 -52 38
-74 38 -28 0 -31 2 -25 25 13 52 18 115 10 116 -5 0 -18 3 -29 6 -11 3 -40 6
-65 6 -43 2 -46 0 -63 -36 -10 -21 -15 -42 -12 -47 8 -13 65 -13 65 0 0 6 -7
10 -15 10 -16 0 -20 27 -7 46 4 7 27 12 51 12 l43 1 -5 -42 c-2 -23 -10 -55
-16 -71 -11 -28 -13 -29 -67 -22 -41 5 -59 3 -69 -8 -12 -12 -7 -21 38 -67 29
-30 73 -70 99 -89 110 -82 160 -124 271 -224 135 -121 122 -119 213 -33 30 28
65 58 78 67 13 8 61 49 107 90 45 41 92 81 103 89 12 8 23 18 26 21 3 4 13 10
24 13 10 4 16 13 13 20 -3 7 10 23 29 35 l34 22 -4 -22 c-2 -13 -9 -22 -15
-20 -6 1 -15 -6 -18 -15 -8 -21 -43 -52 -59 -53 -16 0 -64 -44 -64 -57 0 -7
-8 -18 -19 -25 -10 -7 -22 -28 -26 -46 -10 -47 -12 -202 -3 -202 4 0 8 -5 8
-11 0 -6 -7 -9 -15 -5 -12 4 -14 0 -8 -22 4 -15 7 -35 7 -44 0 -9 4 -14 8 -12
4 3 8 0 8 -6 0 -6 5 -8 11 -4 8 4 9 -1 3 -17 -4 -13 -7 -33 -6 -44 1 -19 0
-19 -9 -2 -8 13 -14 15 -23 7 -10 -8 -29 0 -75 31 -33 22 -61 47 -61 55 0 9
-5 12 -11 9 -5 -4 -35 9 -64 29 -30 20 -62 36 -70 36 -9 0 -34 -17 -58 -38
-23 -21 -80 -67 -127 -103 -46 -35 -93 -72 -103 -82 -23 -23 -34 -14 -20 16
18 37 23 57 13 57 -5 0 -11 -9 -15 -19 -3 -11 -19 -24 -35 -30 -22 -7 -28 -14
-23 -27 5 -14 3 -16 -12 -10 -11 4 -17 4 -13 1 3 -4 -10 -22 -30 -41 l-37 -34
35 7 c35 6 35 6 17 -15 -11 -11 -25 -18 -33 -15 -8 3 -14 1 -12 -5 4 -13 -126
-132 -145 -132 -31 0 -306 290 -451 478 -27 34 -53 61 -57 60 -4 -2 -32 -27
-63 -55 -32 -29 -60 -53 -64 -53 -19 1 -31 18 -34 49 l-3 35 -15 -28 c-14 -27
-13 -29 18 -57 31 -28 41 -49 23 -49 -5 0 -22 -18 -38 -40 -15 -22 -34 -40
-40 -40 -7 0 -13 -6 -13 -14 0 -8 -16 -37 -35 -65 l-34 -52 -16 24 c-17 27
-37 88 -30 95 2 2 10 -10 17 -28 l13 -32 24 19 c26 21 22 43 -9 43 -22 0 -55
43 -64 85 -5 27 -4 26 15 -10 12 -22 23 -42 25 -44 2 -3 16 6 30 20 30 28 69
100 77 144 15 73 17 106 7 100 -5 -3 -10 0 -11 7 0 7 -6 -9 -14 -37 -7 -27
-13 -52 -12 -55 4 -26 -20 -84 -39 -97 -31 -20 -53 -11 -67 27 -23 60 -30 30
-23 -92 9 -157 7 -148 21 -148 22 0 42 -34 48 -80 4 -28 3 -37 -2 -25 l-9 20
-4 -20 c-4 -16 -5 -15 -4 4 1 13 -5 26 -13 29 -21 7 -6 -59 19 -80 26 -21 28
-47 3 -27 -10 7 -5 -1 11 -19 17 -18 37 -32 46 -32 9 0 32 -16 53 -35 20 -19
49 -37 64 -40 16 -4 36 -11 47 -16 26 -15 116 -28 116 -17 0 12 58 -19 89 -48
14 -13 27 -21 30 -18 3 3 -5 14 -19 24 -14 11 -21 20 -16 20 5 0 17 -7 27 -16
10 -9 23 -13 28 -9 21 12 11 24 -26 31 -47 9 -63 28 -61 74 l1 35 4 -32 c5
-39 18 -51 63 -53 63 -4 62 -4 58 50 -1 28 0 50 5 50 4 0 8 -7 8 -15 1 -8 3
-19 4 -25 1 -5 3 -19 4 -30 1 -23 21 -28 21 -5 0 8 5 15 10 15 6 0 9 -3 9 -7
-4 -22 2 -55 8 -50 3 4 12 2 19 -3 6 -6 35 -13 63 -17 49 -6 51 -5 52 18 1 13
2 33 3 44 0 11 -2 28 -7 38 -4 10 -4 17 2 17 10 0 17 -30 26 -104 l4 -39 -67
7 c-149 14 -157 15 -137 6 56 -23 138 -41 176 -38 24 2 84 -1 132 -6 83 -8 87
-10 81 -30 -3 -11 -14 -30 -23 -41 -16 -20 -16 -20 6 -1 12 10 25 27 28 36 5
16 18 17 123 15 142 -3 133 -2 126 -19 -4 -10 0 -13 13 -11 10 2 20 4 23 4 3
1 -2 6 -10 11 -12 8 -11 10 8 10 12 0 22 -5 22 -11 0 -8 4 -8 13 -1 16 13 128
7 137 -8 6 -9 9 -9 11 -1 6 17 37 3 45 -21 3 -12 11 -17 21 -14 8 3 19 6 25 6
6 0 8 7 5 14 -4 10 -1 13 9 9 7 -3 14 -1 14 5 0 11 88 44 100 37 4 -2 22 0 39
5 28 8 31 7 21 -5 -17 -20 4 -20 24 0 15 16 76 21 76 7 0 -5 25 -7 56 -5 38 2
53 0 48 -8 -3 -6 -17 -9 -30 -6 -13 2 -24 0 -24 -4 0 -5 12 -9 26 -9 15 0 23
-4 19 -10 -4 -6 -16 -8 -26 -5 -19 6 -20 2 -18 -49 3 -62 2 -60 30 -45 26 13
43 57 29 74 -11 13 22 60 34 48 4 -4 4 0 0 10 -3 10 -1 17 5 17 6 0 11 6 11
14 0 11 7 13 30 6 27 -8 56 -6 90 8 27 10 85 10 98 0 9 -8 11 -7 7 5 -8 18 22
30 63 26 15 -2 32 -1 37 3 6 3 19 2 30 -2 18 -7 19 -8 3 -15 -10 -4 -18 -12
-18 -17 0 -6 6 -6 14 1 13 11 33 15 84 20 7 0 10 5 7 11 -3 6 1 7 9 4 9 -3 14
-10 11 -14 -5 -8 -74 -25 -88 -21 -5 1 -6 -3 -2 -9 8 -14 62 -3 100 19 37 23
80 37 72 24 -4 -5 0 -10 7 -10 8 0 12 6 9 14 -3 7 -1 13 5 13 6 0 13 -6 15
-12 3 -8 6 -6 6 5 1 9 6 17 11 17 6 0 10 8 11 18 0 15 1 15 8 -2 7 -19 8 -18
23 3 9 13 27 24 41 25 15 0 23 6 20 14 -3 6 2 12 11 12 13 0 14 -5 5 -27 -6
-15 -19 -42 -30 -59 -10 -17 -16 -34 -12 -37 3 -4 1 -7 -5 -7 -7 0 -15 0 -19
0 -9 -1 -13 29 -6 46 3 8 8 12 13 9 4 -2 12 7 18 20 9 20 9 23 -3 18 -8 -3
-12 -10 -8 -17 3 -6 3 -8 -2 -4 -13 13 -36 -29 -33 -61 1 -17 6 -31 10 -31 4
0 8 -5 8 -11 0 -5 -4 -8 -9 -5 -5 3 -14 -1 -20 -8 -8 -10 -9 -16 -1 -21 6 -3
8 -10 6 -14 -9 -14 33 -10 45 5 14 17 -2 19 -19 2 -9 -9 -12 -9 -12 1 0 21 26
41 38 29 8 -8 10 -4 6 13 -3 20 -2 19 7 -4 8 -21 8 -31 -3 -44 -8 -11 -9 -14
-1 -10 7 5 16 -1 23 -12 11 -22 40 -18 40 6 0 8 -4 11 -10 8 -5 -3 -18 -1 -27
4 -10 6 -13 11 -6 11 12 0 12 57 1 76 -3 5 4 36 17 69 15 41 28 60 39 59 9 -1
13 2 10 7 -3 5 0 9 6 9 6 0 8 5 4 11 -4 8 -9 7 -15 -2 -4 -7 -10 -11 -13 -8
-7 7 16 59 26 59 3 0 7 185 7 410 0 252 -4 410 -10 410 -5 0 -9 5 -9 11 0 5 5
7 10 4 25 -15 -5 60 -34 84 -12 10 -16 9 -25 -6 -11 -19 -12 -18 -15 41 -1 23
-9 43 -19 51 -18 13 -24 51 -6 39 15 -9 -16 48 -45 83 -14 17 -24 32 -22 34 2
2 -15 26 -38 53 -39 44 -45 47 -65 37 -12 -7 -32 -14 -43 -16 -12 -3 -25 -10
-29 -16 -5 -8 -8 -8 -13 0 -5 7 6 17 28 26 19 8 38 19 41 25 4 6 11 7 17 4 15
-10 -8 30 -26 46 -9 7 -16 16 -16 21 0 4 -11 24 -24 44 -22 32 -26 34 -35 18
-11 -21 -16 -18 -26 17 -7 22 -6 23 8 12 19 -16 38 -7 30 13 -3 8 0 15 6 15 6
0 8 6 5 14 -3 8 -1 23 4 33 10 20 6 43 -9 43 -5 0 -9 -9 -9 -19 0 -11 -5 -23
-10 -26 -6 -4 -10 -12 -9 -18 3 -25 -2 -33 -20 -33 -14 0 -18 6 -15 23 5 27 6
27 -40 8 -36 -15 -37 -15 -27 3 5 10 17 24 25 31 8 7 17 24 21 39 10 47 15
155 9 200 -6 40 -13 50 -27 35z m118 -720 c45 5 64 -6 78 -46 9 -26 -3 -78
-17 -70 -7 4 -7 2 1 -8 15 -19 12 -67 -5 -78 -7 -4 -11 -18 -10 -31 4 -34 -14
-34 -53 0 -19 16 -38 30 -42 30 -5 0 -6 4 -3 9 3 5 -5 11 -17 15 -13 3 -34 15
-47 26 -13 11 -29 20 -35 20 -17 0 -65 39 -65 52 0 6 3 9 6 5 4 -3 19 0 35 8
25 13 30 13 44 -1 10 -11 19 -13 28 -6 13 11 61 9 92 -4 17 -7 18 -6 5 8 -8 9
-18 14 -21 12 -4 -2 -12 2 -18 9 -8 11 -5 13 18 9 16 -2 32 1 36 8 11 17 -1
23 -23 11 -15 -8 -23 -6 -39 12 -29 32 -40 56 -14 29 19 -19 31 -22 66 -19z
m-355 -174 c25 -7 61 -24 80 -37 33 -23 34 -24 8 -18 -21 5 -28 3 -28 -9 0 -8
6 -15 13 -15 15 0 59 -35 53 -41 -3 -2 7 -5 21 -6 14 0 28 -5 32 -10 3 -4 16
-17 29 -28 17 -14 23 -16 20 -5 -2 8 -5 17 -8 20 -3 3 -14 16 -25 29 l-20 25
27 -20 c16 -10 31 -29 34 -41 7 -26 31 -49 41 -39 4 4 1 11 -7 16 -8 6 -10 10
-5 10 18 0 161 -145 168 -170 4 -17 -3 -36 -26 -69 -18 -25 -36 -49 -40 -52
-5 -3 -8 -9 -8 -13 2 -17 -1 -23 -29 -56 -17 -19 -28 -28 -25 -19 4 10 2 20
-4 24 -6 3 -11 11 -11 17 0 7 6 6 15 -2 18 -15 18 -14 6 28 -8 25 -7 32 5 32
8 0 14 7 14 15 0 8 6 15 14 15 8 0 16 7 20 15 4 12 0 14 -19 9 -27 -7 -25 -10
-45 76 -13 56 -25 84 -47 108 -18 18 -16 3 3 -33 8 -16 15 -51 16 -77 0 -27 4
-48 9 -48 4 0 7 -13 6 -29 -1 -22 -5 -27 -14 -19 -17 14 -17 -4 -1 -20 10 -10
10 -15 -1 -21 -8 -5 -11 -16 -8 -25 17 -44 -92 -202 -152 -221 -12 -3 -21 -10
-21 -15 0 -10 -4 -10 -98 -15 -38 -2 -74 2 -89 10 -36 19 -83 63 -82 78 0 9 2
9 6 0 2 -7 11 -13 18 -13 7 0 32 -9 56 -20 56 -25 102 -25 158 0 50 23 68 20
24 -4 -33 -18 -25 -21 12 -4 14 6 25 17 25 25 0 7 3 12 8 11 4 -1 20 6 35 16
30 20 65 76 47 76 -6 0 -5 11 4 28 9 18 12 45 9 80 -4 31 -2 52 4 52 6 0 9 20
7 45 -2 32 -13 61 -41 102 -39 60 -44 63 -155 114 -62 28 -69 29 -84 15 -8 -9
-22 -16 -30 -16 -8 0 -14 -4 -14 -10 0 -5 -6 -7 -12 -5 -17 6 -77 -74 -95
-128 -21 -60 -22 -154 -1 -197 38 -80 129 -137 199 -125 42 7 56 -9 17 -18
-39 -9 -130 2 -148 18 -9 8 -21 15 -27 15 -17 0 -88 71 -106 105 -29 54 -35
97 -21 150 38 148 123 255 203 255 45 0 64 12 55 33 -3 10 -1 17 5 17 6 0 11
4 11 10 0 5 -6 7 -14 4 -8 -3 -19 3 -25 15 -12 22 -15 42 -3 25 4 -7 27 -18
52 -25z m-17 -226 c-27 -5 -85 -64 -95 -96 -25 -88 21 -177 93 -177 30 0 68
39 75 78 l7 37 9 -30 c18 -65 -31 -114 -107 -111 -50 3 -78 18 -106 57 -18 26
-19 33 -8 40 11 7 10 9 -3 9 -10 0 -18 7 -18 16 0 13 3 14 14 5 13 -11 13 -7
5 23 -8 28 -6 43 6 68 21 43 82 87 120 86 22 -1 24 -2 8 -5z m-1689 -388 c11
-19 23 -35 29 -35 5 0 6 -7 3 -16 -6 -15 -4 -15 10 -3 16 13 16 12 4 -11 -7
-14 -9 -22 -5 -18 5 4 15 2 23 -5 13 -10 14 -9 8 1 -7 11 -4 12 11 3 25 -13
83 -78 83 -92 0 -6 4 -7 10 -4 11 7 60 -67 60 -90 0 -8 5 -15 11 -15 5 0 8 -4
5 -9 -4 -5 -18 -4 -34 4 -15 8 -39 17 -55 20 -21 6 -26 4 -22 -7 8 -21 -53
-11 -80 12 -11 10 -47 25 -80 34 -33 10 -83 24 -112 32 -29 8 -55 19 -59 25
-11 18 130 184 148 173 5 -3 8 -2 7 3 -7 43 12 42 35 -2z m1081 -15 c-3 -5 1
-10 10 -10 9 0 38 -16 63 -36 108 -82 191 -142 245 -178 32 -21 55 -41 51 -44
-4 -4 -9 -2 -11 5 -2 7 -11 9 -19 6 -7 -3 -11 -9 -8 -14 3 -5 0 -9 -5 -9 -6 0
-11 -4 -11 -10 0 -5 7 -10 15 -10 8 0 12 -6 9 -14 -4 -10 -15 -11 -47 -5 -23
4 -59 8 -80 9 -36 0 -37 1 -22 17 11 10 19 13 23 6 4 -6 23 -10 42 -8 50 4 50
4 50 15 0 13 -57 13 -65 0 -5 -7 -11 -8 -19 -1 -15 13 -70 0 -119 -27 -47 -27
-145 -26 -176 2 -21 19 -23 20 -151 16 -103 -3 -109 -2 -92 9 7 4 15 17 16 27
2 10 9 18 16 16 14 -3 153 108 145 116 -6 7 15 32 27 32 5 0 6 -4 3 -10 -12
-19 2 -10 26 17 18 21 19 24 4 13 -11 -8 2 6 30 32 51 48 61 56 50 38z m-520
-290 c-17 -7 -15 -9 13 -9 17 -1 32 4 32 9 0 6 9 10 21 10 15 0 20 -5 17 -22
-3 -21 -8 -23 -63 -22 -33 0 -69 4 -80 8 -16 6 -17 6 -5 -3 13 -9 13 -12 1
-20 -10 -6 -12 -20 -8 -47 7 -41 21 -56 51 -52 26 4 33 28 8 28 -11 0 -25 7
-32 15 -19 23 15 47 59 41 45 -7 49 -12 54 -72 7 -75 3 -78 -94 -70 -46 4 -87
10 -91 14 -9 9 -16 142 -7 142 3 0 9 -25 11 -55 3 -31 9 -60 14 -65 5 -5 38
-10 74 -12 l65 -3 3 53 c4 52 4 52 -27 52 -16 0 -33 -4 -36 -10 -3 -5 1 -10 9
-10 18 0 35 -29 29 -47 -3 -8 -22 -13 -48 -13 -49 0 -44 -8 -60 109 l-6 43 30
-4 c19 -3 32 0 35 9 3 7 16 13 28 12 22 0 22 -1 3 -9z"/>
<path d="M621 3836 c-11 -13 -12 -22 -4 -35 8 -13 7 -22 -3 -36 -21 -28 -17
-47 8 -43 12 2 23 9 26 16 2 8 -2 10 -15 5 -17 -7 -17 -6 -2 17 17 26 64 39
81 22 6 -6 0 -28 -16 -60 -30 -59 -32 -72 -11 -72 28 0 15 -17 -37 -51 -63
-42 -78 -52 -151 -108 -32 -25 -61 -40 -66 -35 -7 9 -44 104 -78 203 -10 29
-22 53 -28 53 -5 0 -19 5 -30 11 -11 6 -41 18 -67 27 -46 16 -48 16 -66 -4
-31 -34 -59 -79 -67 -106 l-7 -25 17 23 c9 12 21 20 26 16 6 -3 28 8 49 25 21
17 41 31 44 31 3 0 6 -15 6 -32 0 -89 45 -239 111 -370 l44 -88 30 28 c84 77
340 262 363 262 5 0 12 7 16 15 3 8 10 15 16 15 15 0 120 71 120 81 0 5 -4 9
-10 9 -12 0 -4 94 10 120 17 31 12 37 -34 42 -71 8 -91 1 -107 -40 -8 -21 -15
-40 -17 -44 -5 -12 56 -9 63 2 3 6 -1 10 -9 10 -20 0 -21 34 -2 49 15 13 69
11 74 -2 7 -17 -21 -119 -34 -124 -23 -8 -164 8 -164 19 0 5 6 24 14 41 36 85
36 86 18 91 -9 2 -34 7 -54 10 -27 5 -37 12 -40 28 -3 20 -4 20 -17 4z"/>
<path d="M710 3823 c14 -2 35 -6 47 -8 l22 -5 -24 -53 c-31 -66 -32 -87 -2
-88 12 0 41 -3 65 -5 45 -5 50 0 68 71 6 22 3 25 -24 25 -37 0 -51 -17 -24
-28 15 -5 18 -12 11 -29 -7 -19 -16 -23 -49 -23 -35 0 -40 3 -40 23 1 31 36
107 52 108 23 2 143 -3 146 -6 2 -1 -5 -29 -14 -61 -10 -33 -19 -64 -20 -71
-2 -14 18 -19 73 -19 22 1 39 -3 36 -7 -3 -5 5 -7 18 -5 18 2 26 13 36 47 7
24 10 48 7 52 -7 12 -74 11 -74 0 0 -5 9 -13 20 -16 11 -3 20 -12 20 -18 -1
-28 -18 -38 -59 -35 l-43 3 7 49 c10 77 18 86 77 86 28 0 48 3 45 7 -4 3 -96
7 -204 8 -109 1 -187 1 -173 -2z"/>
<path d="M797 3389 c-47 -25 -70 -48 -108 -107 -56 -89 -32 -217 54 -286 29
-23 50 -31 95 -34 49 -3 63 0 99 24 58 38 77 81 70 156 -6 67 -24 101 -70 128
-32 20 -102 27 -123 12 -26 -17 -64 -87 -64 -118 0 -39 41 -90 80 -99 42 -10
80 27 80 76 0 33 -4 41 -26 51 -20 10 -27 9 -34 -2 -5 -9 -5 -19 1 -27 14 -16
3 -33 -22 -33 -29 0 -30 61 -2 93 33 36 96 16 119 -38 22 -54 18 -90 -17 -129
-38 -44 -80 -53 -137 -31 -60 24 -85 64 -85 134 0 64 17 102 62 145 26 25 41
30 93 34 46 4 70 0 94 -13 19 -10 31 -21 29 -25 -2 -4 7 -13 22 -21 32 -17 62
-81 63 -133 0 -47 -42 -141 -79 -177 -14 -14 -41 -31 -60 -39 -41 -16 -124
-18 -143 -3 -7 5 -25 13 -40 17 -32 7 -99 70 -122 114 -9 18 -19 32 -21 32 -7
0 0 -38 8 -46 4 -4 7 -14 7 -21 0 -8 7 -22 16 -30 12 -12 13 -18 3 -24 -20
-12 7 -62 64 -116 78 -73 93 -80 166 -79 91 1 88 20 -6 34 -83 13 -121 34
-187 99 -40 40 -42 46 -22 62 10 9 16 8 26 -4 9 -11 9 -15 1 -15 -25 0 58 -59
118 -85 60 -25 68 -26 110 -14 59 16 148 74 157 102 4 12 14 33 24 47 48 71
51 208 5 286 -63 107 -201 154 -298 103z"/>
<path d="M2673 2340 c3 -11 2 -18 -3 -15 -4 3 -14 -3 -21 -12 -12 -15 -12 -16
3 -10 15 5 16 3 5 -20 -9 -20 -9 -27 0 -30 7 -3 9 -11 6 -19 -5 -13 -7 -13
-14 -2 -6 9 -8 6 -6 -9 0 -12 4 -20 7 -18 4 2 7 -9 7 -26 0 -16 -4 -25 -7 -18
-5 8 -11 6 -17 -6 -9 -15 -11 -13 -16 14 -4 17 -4 39 -1 48 5 14 4 15 -4 4 -8
-11 -12 -10 -21 5 -20 35 -12 -9 9 -51 22 -43 25 -70 10 -80 -6 -4 -8 -14 -6
-23 3 -10 1 -24 -5 -32 -9 -13 -10 -12 -5 3 3 9 1 17 -4 17 -6 0 -10 11 -10
24 0 14 -7 31 -15 40 -8 8 -15 22 -15 30 0 11 -10 16 -27 17 -16 0 -38 2 -50
3 -18 2 -26 -5 -35 -30 -11 -31 -12 -32 -27 -15 -9 10 -23 20 -31 24 -12 4
-11 6 3 6 25 1 21 21 -5 22 l-23 0 23 10 c13 5 21 13 17 18 -9 16 -30 3 -48
-32 -10 -18 -29 -46 -42 -61 -13 -15 -30 -37 -38 -49 -13 -20 -17 -21 -40 -8
-15 8 -24 18 -21 23 3 4 -5 8 -18 8 -18 0 -20 2 -8 10 13 9 13 10 -1 10 -16 0
-39 -19 -39 -32 0 -4 6 -5 14 -2 7 3 21 -6 30 -20 9 -15 23 -26 31 -26 9 0 12
-6 9 -15 -4 -11 -2 -13 9 -9 8 3 18 0 23 -7 8 -14 -44 -65 -55 -53 -3 4 0 9 7
11 6 3 12 9 12 14 0 6 -5 7 -10 4 -6 -4 -19 -1 -28 6 -9 7 -14 9 -10 5 4 -5 3
-15 -3 -22 -7 -8 -6 -14 2 -20 7 -4 9 -3 5 4 -3 6 -2 13 3 16 5 3 12 -5 15
-19 5 -18 11 -23 23 -18 9 4 -11 -21 -45 -55 -34 -34 -66 -62 -70 -63 -4 0
-15 -2 -25 -4 -9 -2 -24 3 -31 11 -12 11 -15 11 -20 -1 -6 -18 -36 -9 -36 11
0 8 7 14 15 14 8 0 15 5 15 11 0 6 -7 9 -15 5 -11 -4 -15 2 -15 24 0 16 -4 31
-10 35 -5 3 -7 12 -3 20 3 8 1 15 -3 16 -5 0 -21 2 -36 4 -16 2 -28 -1 -28 -6
0 -6 4 -8 9 -5 11 7 23 -22 15 -35 -3 -5 0 -9 5 -9 6 0 11 -17 10 -37 0 -29
-2 -33 -8 -18 -5 11 -6 27 -3 35 3 8 -5 4 -19 -9 -16 -16 -20 -25 -11 -28 17
-6 15 -23 -3 -23 -13 0 -19 22 -18 68 1 23 -12 11 -30 -28 -10 -22 -23 -40
-28 -40 -6 0 -8 4 -4 9 3 6 -4 15 -15 21 -23 12 -26 5 -7 -15 33 -37 36 -44
27 -50 -6 -3 -10 -1 -10 4 0 6 -5 11 -12 11 -6 0 -8 -3 -5 -7 7 -6 -21 -32
-35 -33 -5 0 -8 6 -8 14 0 7 -10 16 -22 19 -25 7 -38 0 -21 -11 7 -4 13 -22
15 -39 1 -20 6 -29 15 -26 7 3 13 9 13 15 0 5 7 2 16 -7 15 -15 15 -18 -2 -38
-11 -12 -23 -25 -29 -29 -14 -11 -118 -1 -149 14 -20 9 -29 9 -38 0 -9 -9 -9
-12 2 -13 8 0 24 -2 35 -5 11 -2 40 -8 65 -13 25 -4 39 -9 32 -10 -7 0 -10 -5
-7 -11 3 -5 1 -10 -4 -10 -6 0 -11 4 -11 8 0 4 -9 8 -20 8 -27 0 -25 -12 3
-21 12 -3 17 -9 10 -11 -7 -3 -9 -12 -6 -21 4 -11 2 -14 -5 -9 -16 10 -16 -26
0 -42 7 -7 22 -12 35 -12 26 0 31 -18 8 -26 -8 -3 -22 1 -30 10 -21 20 -32 21
-15 1 11 -13 7 -15 -24 -15 -35 0 -50 20 -26 35 6 4 7 12 3 18 -4 7 -6 25 -4
41 2 17 -1 26 -7 22 -6 -3 -13 2 -15 11 -3 10 -5 3 -4 -14 1 -18 6 -33 11 -33
5 0 6 -3 3 -7 -4 -3 -2 -12 4 -19 7 -8 7 -14 -1 -19 -5 -3 -10 -2 -10 4 0 6
-11 18 -25 27 -22 14 -26 14 -40 1 -20 -20 -19 -28 1 -20 11 4 23 -1 32 -13
12 -16 14 -16 9 -1 -4 9 -3 17 2 17 10 0 25 -50 17 -57 -10 -11 -80 33 -97 61
-10 16 -25 31 -33 32 -12 2 -13 -1 -3 -17 10 -17 6 -24 -32 -58 -37 -33 -42
-41 -32 -57 10 -18 10 -18 11 0 0 21 56 76 76 76 6 0 14 -7 18 -15 3 -8 12
-15 20 -15 8 0 16 -4 18 -9 4 -12 60 -14 142 -6 37 4 63 1 72 -6 21 -17 17
-28 -7 -22 -19 5 -20 3 -10 -14 5 -11 7 -23 4 -27 -6 -6 13 -10 31 -7 5 1 4
-4 -2 -12 -7 -8 -9 -17 -5 -20 3 -4 0 -7 -8 -8 -8 0 -27 -2 -43 -3 -15 -1 -30
4 -33 11 -3 7 -13 13 -22 13 -14 -1 -14 -2 2 -14 9 -7 17 -19 17 -25 0 -7 5
-9 12 -5 8 5 9 2 5 -9 -3 -10 -2 -17 3 -17 6 0 10 5 10 12 0 6 3 8 7 5 13 -14
-34 -46 -58 -40 -19 4 -21 3 -9 -6 8 -6 11 -11 5 -12 -5 0 -1 -4 10 -9 16 -7
17 -9 3 -9 -9 -1 -20 4 -23 9 -3 6 -26 10 -51 10 -34 0 -44 4 -44 16 0 12 7
15 25 12 14 -3 28 -1 31 4 3 5 12 7 19 4 8 -3 16 0 19 7 3 9 5 9 5 0 1 -7 7
-13 15 -13 18 0 15 23 -7 44 -11 11 -17 33 -17 62 0 24 -4 44 -9 44 -16 0 -19
-37 -5 -69 7 -17 9 -31 5 -31 -5 0 -12 8 -15 17 -6 15 -9 15 -16 3 -6 -9 -3
-18 8 -26 9 -7 14 -16 9 -20 -4 -4 -7 -2 -7 4 0 7 -6 12 -14 12 -8 0 -17 6
-19 13 -4 9 -6 9 -6 -1 -1 -9 -6 -10 -20 -3 -15 8 -20 7 -25 -6 -9 -21 3 -31
14 -13 8 12 10 12 10 1 0 -8 6 -11 16 -7 9 3 12 2 9 -5 -4 -6 -13 -8 -21 -5
-9 4 -14 -2 -14 -15 0 -20 -4 -21 -55 -14 -37 4 -55 3 -55 -4 0 -6 5 -11 11
-11 5 0 7 -5 4 -11 -4 -6 -13 -8 -21 -5 -17 7 -58 -30 -43 -39 5 -4 27 7 48
24 39 31 65 39 76 22 3 -6 15 -8 27 -6 12 3 28 -1 36 -7 7 -7 30 -12 51 -13
39 -1 106 -49 95 -67 -3 -5 -9 -7 -12 -4 -3 3 -10 -4 -16 -17 -14 -26 -49 -29
-54 -4 -4 20 33 25 41 5 4 -8 6 -7 6 3 1 19 -22 31 -44 23 -8 -4 -15 -2 -15 4
0 5 9 12 21 15 12 3 18 10 14 16 -3 6 -11 9 -16 5 -5 -3 -17 0 -25 7 -8 6 -18
9 -22 5 -4 -4 1 -12 10 -17 20 -11 13 -39 -11 -39 -14 0 -14 2 -1 11 11 8 12
12 3 16 -7 2 -13 11 -13 18 0 13 -29 29 -37 21 -9 -8 -10 -57 -2 -61 13 -9 21
15 9 30 -7 9 -8 15 -1 20 6 3 13 -6 17 -21 5 -20 2 -29 -11 -36 -10 -6 -13
-13 -8 -17 6 -3 14 -17 18 -31 7 -23 6 -24 -10 -10 -15 13 -17 12 -15 -5 4
-33 1 -36 -20 -25 -22 12 -26 3 -7 -20 17 -21 38 -24 30 -3 -5 13 -2 15 16 10
13 -3 20 -3 17 0 -8 8 20 33 39 33 11 0 5 -11 -19 -35 -25 -25 -44 -35 -66
-35 -17 0 -29 3 -27 8 3 4 -39 8 -92 8 -90 2 -94 1 -56 -11 22 -7 70 -15 108
-19 37 -4 67 -12 67 -17 0 -8 -30 -14 -52 -10 -5 0 -8 -6 -8 -14 0 -8 5 -15
10 -15 6 0 10 5 10 10 0 13 37 13 44 1 4 -5 0 -12 -6 -14 -7 -3 -3 -6 10 -6
12 -1 25 -8 28 -16 4 -8 16 -15 27 -15 16 0 10 -6 -20 -22 -100 -55 -125 -70
-120 -74 3 -3 29 7 59 22 29 16 56 27 61 26 4 -1 7 3 7 9 0 6 9 9 20 6 11 -3
18 0 17 6 -3 15 27 16 104 4 35 -5 72 -10 81 -10 19 -1 22 -53 4 -73 -12 -13
-49 -6 -40 8 7 11 -27 39 -39 31 -4 -2 -15 1 -24 9 -15 11 -16 11 -10 -5 4
-10 7 -21 7 -23 0 -2 7 -4 15 -4 8 0 15 -9 15 -19 0 -11 3 -21 8 -24 4 -2 1
-2 -5 -1 -8 2 -13 -7 -13 -22 0 -14 -4 -23 -9 -20 -5 3 -7 16 -4 29 3 12 2 19
-2 14 -12 -10 -16 -99 -4 -92 5 4 9 1 9 -4 0 -6 -9 -11 -19 -11 -11 0 -26 -7
-35 -15 -8 -8 -19 -15 -24 -15 -12 0 -21 -80 -10 -86 16 -10 -2 -21 -32 -19
-16 1 -30 -2 -30 -6 0 -9 26 -19 53 -20 16 0 18 -2 7 -7 -8 -4 -15 -17 -16
-29 0 -19 3 -22 23 -17 14 4 23 2 23 -5 0 -6 7 -11 15 -11 8 0 15 5 15 10 0 6
6 10 14 10 17 0 29 -41 15 -55 -7 -6 -10 -7 -9 0 2 6 2 19 1 30 -1 17 -3 18
-11 5 -5 -8 -10 -26 -10 -40 0 -14 -4 -20 -8 -15 -4 6 -17 18 -29 28 -21 19
-22 18 -16 -4 4 -15 3 -20 -5 -15 -7 4 -12 14 -12 21 0 8 -10 19 -21 26 -12 6
-19 7 -16 2 9 -14 -4 -27 -50 -57 -24 -15 -43 -34 -43 -44 0 -12 -9 -18 -26
-20 l-26 -2 23 21 c13 11 18 18 12 14 -10 -5 -11 0 -3 21 6 15 8 29 6 32 -8 7
-37 -19 -31 -27 2 -4 -5 -13 -15 -21 -10 -8 -16 -18 -13 -24 10 -16 12 -76 2
-70 -5 3 -9 0 -9 -5 0 -6 -9 -11 -20 -11 -11 0 -20 5 -20 10 0 6 -15 4 -35 -4
-23 -10 -44 -12 -58 -7 -12 4 -27 6 -34 4 -6 -2 -14 1 -18 6 -4 7 5 11 24 11
16 0 32 -4 35 -9 3 -5 15 -7 25 -4 17 4 18 8 8 23 -6 10 -15 16 -19 13 -15 -9
-58 26 -52 42 7 16 -11 21 -21 5 -3 -5 -13 -7 -23 -4 -9 3 -6 -2 8 -10 l25
-16 -30 6 c-16 4 -41 13 -54 21 -14 9 -26 11 -30 6 -8 -13 -94 -16 -86 -3 3 6
-1 10 -9 10 -21 0 -21 -26 0 -34 9 -3 34 -6 57 -6 64 -1 72 -12 72 -105 0 -44
-4 -88 -9 -98 -6 -13 -4 -17 12 -17 11 0 22 -7 26 -15 3 -9 0 -15 -9 -15 -8 0
-15 -7 -15 -16 0 -11 6 -14 23 -9 14 4 18 3 9 -3 -10 -7 -10 -11 1 -21 12 -9
16 -7 21 14 4 14 5 29 2 33 -2 4 3 14 12 22 14 13 15 13 10 -1 -4 -9 -1 -16 8
-16 7 0 11 4 8 9 -3 4 2 8 10 8 9 0 16 -8 16 -17 0 -14 2 -15 9 -4 7 11 11 10
20 -7 6 -11 11 -28 11 -37 0 -24 23 -13 32 16 7 23 7 22 4 -4 -4 -31 1 -34 20
-9 13 16 13 16 14 0 0 -32 20 -19 20 13 0 27 2 30 15 19 9 -7 14 -19 11 -26
-3 -7 -1 -16 4 -19 6 -4 10 1 10 10 0 21 27 30 44 15 12 -9 17 -7 26 10 10 19
9 20 -17 15 l-28 -5 30 14 c27 13 31 12 52 -7 15 -15 18 -24 10 -29 -18 -11
-5 -17 56 -24 47 -6 57 -4 57 8 0 19 38 17 52 -3 6 -10 11 -10 14 -3 3 7 14
10 24 7 15 -4 20 0 20 16 0 11 6 21 13 22 6 0 3 5 -8 10 -16 7 -13 8 16 6 20
-1 41 3 48 10 6 7 16 13 21 13 15 0 12 -26 -5 -40 -18 -15 -20 -50 -2 -50 6 0
13 12 13 26 2 33 8 38 32 25 12 -6 28 -11 36 -11 13 0 12 4 -4 20 -11 11 -25
20 -30 20 -5 0 -10 14 -10 30 0 25 10 37 23 28 2 -2 12 4 22 12 17 14 17 14 1
-17 -14 -29 -15 -32 0 -26 11 4 15 1 12 -12 -2 -10 3 -20 9 -22 9 -3 11 4 6
27 -5 30 -4 31 13 22 11 -6 28 -10 38 -9 25 3 31 -17 11 -36 -17 -17 -21 -77
-5 -77 6 0 10 3 11 8 6 71 14 85 28 48 6 -14 13 -26 15 -26 7 0 -1 37 -10 52
-5 7 -9 19 -10 28 -1 8 -5 29 -9 45 -7 27 -7 29 8 17 12 -11 20 -11 38 -1 21
11 21 13 6 24 -19 14 -24 30 -5 19 6 -4 8 -3 5 3 -4 6 -19 9 -33 7 l-27 -3 30
28 c32 29 47 69 36 97 -5 14 -9 11 -18 -16 -6 -19 -17 -35 -23 -36 -7 -1 -8 0
-2 3 5 2 10 13 10 23 0 25 21 70 32 70 5 0 6 -5 2 -12 -4 -6 -3 -8 4 -5 5 4 8
17 4 29 -3 13 -1 19 5 15 11 -7 36 40 28 53 -8 12 6 41 16 34 5 -3 6 3 2 12
-4 12 -3 15 5 10 8 -5 12 0 12 13 0 11 5 23 10 26 6 3 10 15 10 26 0 10 4 19
10 19 5 0 6 7 3 17 -4 10 -2 14 5 9 6 -3 14 3 17 16 4 13 18 47 31 76 29 63
29 69 7 51 -10 -7 -6 0 10 17 27 30 36 64 16 64 -5 0 -8 -4 -5 -9 3 -5 -2 -15
-11 -22 -15 -12 -16 -12 -8 6 4 11 8 30 9 42 1 12 5 25 10 30 5 4 7 2 4 -7 -4
-11 0 -16 13 -16 11 0 19 4 19 8 0 4 -3 8 -7 8 -10 0 -9 47 1 78 7 21 26 22
26 1 0 -6 -4 -8 -9 -5 -5 3 -11 -1 -15 -9 -3 -8 -1 -17 4 -20 5 -3 6 -13 3
-23 -3 -9 -3 -14 1 -10 4 3 9 12 10 20 2 7 9 29 17 48 7 19 12 38 11 43 -1 4
3 7 8 7 6 0 10 5 10 10 0 6 -8 5 -20 -2 -10 -7 -15 -15 -10 -18 5 -3 5 -11 1
-19 -6 -10 -10 -9 -15 4 -4 11 6 28 31 51 20 19 32 38 27 42 -5 4 -13 12 -17
17 -5 6 -7 3 -3 -7 3 -10 0 -18 -6 -18 -7 0 -8 11 -3 33 4 17 13 57 19 86 9
39 14 50 19 37 4 -10 5 -22 1 -27 -3 -5 2 -17 12 -26 16 -16 16 -16 10 5 -10
31 2 65 20 58 8 -3 12 -2 9 3 -3 5 -1 12 4 16 6 3 8 12 4 20 -3 9 1 15 8 15 9
0 10 3 4 8 -5 4 -11 13 -13 21 -3 12 -1 12 13 1 9 -7 15 -9 14 -4 -1 5 -1 26
0 47 1 28 4 36 14 31 6 -4 9 -4 5 1 -4 4 -2 15 5 23 9 13 9 14 0 8 -17 -10
-16 -1 2 35 9 16 13 33 11 38 -3 5 1 15 10 22 9 8 13 21 10 35 -4 13 -1 24 7
27 9 4 9 6 -1 6 -7 1 -10 6 -7 11 3 6 2 10 -4 10 -5 0 -12 -6 -15 -12 -5 -10
-7 -10 -12 1 -5 11 -8 11 -15 0 -7 -11 -9 -10 -9 4 0 9 5 17 10 17 6 0 10 10
10 23 0 12 8 31 16 42 16 19 16 19 9 -5 -16 -58 -17 -65 -7 -51 5 7 14 11 20
7 5 -3 12 3 15 14 3 11 1 18 -4 14 -15 -9 -10 23 6 36 8 7 12 17 9 22 -3 5 -3
24 0 43 5 26 11 33 26 30 13 -2 17 1 14 10 -3 7 -1 23 5 34 14 25 -4 39 -18
14 -8 -14 -10 -15 -11 -3 0 9 9 23 20 33 12 10 20 29 20 49 0 20 3 28 8 21 5
-8 12 -3 19 17 7 18 7 30 2 30 -5 0 -12 -6 -15 -14 -7 -19 -32 -28 -40 -14 -4
6 -3 8 3 5 5 -3 17 7 27 24 9 16 21 29 27 29 5 0 9 7 9 15 0 9 -6 12 -15 9 -8
-4 -13 -10 -10 -14 3 -4 -1 -13 -9 -19 -11 -10 -13 -3 -9 36 3 27 6 54 8 60 7
21 34 3 38 -25 2 -15 3 4 1 43 -1 38 1 74 6 80 5 6 11 34 14 62 4 41 2 52 -11
57 -12 5 -14 1 -10 -14z m-374 -375 c1 15 4 16 10 7 9 -16 -43 -77 -58 -68 -5
4 -13 1 -17 -5 -4 -7 -3 -9 2 -6 6 3 16 1 24 -4 13 -9 13 -10 0 -8 -24 2 -60
-12 -54 -22 3 -5 12 -5 22 0 14 7 18 5 18 -9 0 -10 -4 -16 -9 -13 -5 3 -5 -16
-1 -42 4 -33 3 -46 -4 -41 -6 3 -13 2 -16 -3 -9 -14 25 -23 39 -11 9 8 15 8
20 0 4 -6 1 -9 -7 -8 -8 2 -12 -5 -10 -17 2 -17 1 -17 -8 -5 -6 10 -13 11 -17
5 -11 -15 -56 -16 -65 -2 -5 8 -8 6 -8 -6 0 -10 10 -21 22 -26 18 -6 19 -9 5
-14 -10 -4 -17 -2 -17 4 0 6 -4 8 -9 5 -12 -8 -20 31 -15 74 3 19 5 47 5 62 0
20 12 36 40 59 22 17 47 45 55 62 26 50 38 58 46 33 6 -20 6 -20 7 -1z m-332
-157 c0 -7 1 -21 1 -31 2 -16 4 -17 17 -4 8 9 26 14 40 13 14 -2 25 0 25 3 0
3 18 6 40 6 22 0 40 -3 40 -7 0 -5 -5 -8 -11 -8 -7 0 -9 -10 -5 -24 3 -14 1
-28 -4 -31 -6 -4 -8 -14 -6 -23 9 -29 -8 -46 -33 -33 -11 7 -21 8 -21 3 0 -5
9 -13 21 -18 l21 -9 -21 -19 c-12 -11 -21 -14 -21 -8 0 7 5 12 10 12 6 0 10 5
10 11 0 8 -4 8 -14 0 -10 -9 -17 -6 -30 14 -15 23 -15 24 1 19 15 -5 16 -4 3
5 -8 6 -18 11 -22 11 -14 0 -9 -28 8 -44 8 -9 13 -16 9 -16 -4 0 0 -7 9 -15
29 -29 -23 -120 -71 -126 -16 -2 -32 -6 -35 -9 -2 -1 -25 -4 -53 -7 -27 -2
-52 -8 -55 -13 -3 -5 -16 -2 -30 6 -24 14 -24 15 -2 11 12 -3 22 -1 22 5 0 5
12 9 28 8 42 -3 74 10 67 28 -3 8 0 20 6 28 7 8 7 19 1 31 -5 10 -7 24 -5 31
3 6 0 12 -5 12 -6 0 -13 -6 -15 -12 -3 -7 -6 10 -6 39 -1 53 13 64 42 33 10
-10 9 -11 -3 -5 -13 8 -13 7 -1 -8 16 -21 41 -22 41 -3 0 8 6 17 13 19 6 3 2
6 -10 6 -22 1 -34 21 -13 21 5 0 14 9 20 20 9 17 8 20 -11 20 -14 0 -19 -5
-16 -14 4 -9 -3 -16 -19 -19 l-25 -4 22 23 c12 13 18 24 13 24 -5 0 -1 7 9 14
17 13 17 14 0 20 -15 6 -15 8 -3 16 20 13 28 12 27 -2z m236 -194 c-2 -7 -1
-14 4 -17 15 -10 2 -94 -18 -116 -23 -24 -44 -28 -35 -6 4 10 -1 15 -15 15
-11 0 -18 3 -16 8 3 4 1 16 -4 27 -7 17 -8 17 -8 -7 -1 -16 -5 -28 -11 -28 -5
0 -10 -8 -10 -17 0 -11 -3 -14 -8 -7 -17 24 -81 26 -66 2 4 -6 10 -5 15 3 4 7
11 11 14 7 8 -8 -35 -58 -51 -58 -6 0 -19 -10 -27 -22 -9 -13 -16 -18 -16 -11
-1 6 3 14 9 18 5 3 6 13 3 22 -5 12 -3 14 7 8 10 -6 12 -3 8 11 -5 19 12 44
29 44 12 0 53 64 53 82 0 8 9 23 21 34 15 13 20 14 17 4 -2 -8 -9 -21 -16 -29
-9 -10 -10 -17 -3 -24 12 -12 15 -31 4 -24 -5 3 -9 -7 -10 -21 l-1 -27 13 25
c8 14 12 34 9 45 -3 12 -2 15 3 9 10 -15 44 -21 61 -11 7 5 12 4 12 -2 0 -20
21 -11 29 12 9 23 -5 41 -23 30 -5 -4 -7 1 -3 10 4 11 2 14 -9 10 -7 -3 -14 0
-14 6 0 5 13 9 29 8 17 -1 27 -7 24 -13z m-516 -515 c6 -6 9 -18 6 -26 -3 -8
0 -19 7 -23 7 -4 9 -13 6 -19 -4 -6 -12 -9 -17 -5 -5 3 -7 10 -4 15 4 5 2 9
-4 9 -5 0 -8 9 -6 21 4 19 2 19 -20 -6 -14 -14 -29 -23 -35 -20 -5 3 -14 -4
-20 -15 -10 -19 -9 -19 15 -8 21 9 28 9 35 -2 4 -7 15 -10 24 -7 9 4 16 1 16
-6 0 -8 3 -8 9 2 5 8 18 12 29 8 12 -2 23 0 25 7 2 6 4 -2 4 -18 0 -20 -2 -24
-8 -15 -8 12 -11 12 -18 -1 -11 -16 -4 -33 10 -25 5 4 9 4 9 1 0 -2 3 -13 6
-23 5 -15 4 -15 -5 -3 -9 13 -11 13 -11 -2 0 -9 6 -19 13 -21 7 -4 5 -6 -5 -7
-64 -7 -152 6 -168 25 -7 8 -19 15 -27 15 -8 0 -11 5 -8 10 3 6 2 10 -3 10 -6
0 -13 7 -16 15 -4 11 3 19 20 26 15 5 35 21 46 34 11 14 24 23 29 19 5 -3 8
-1 7 5 -3 9 30 40 43 41 3 0 10 -5 16 -11z m-473 -871 c9 8 86 11 86 3 0 -7
47 -29 88 -40 33 -10 96 14 85 32 -4 6 -1 7 7 2 10 -6 9 -11 -6 -23 -18 -13
-17 -14 10 -8 25 6 28 5 18 -7 -7 -8 -22 -12 -37 -9 -21 4 -24 1 -19 -14 6
-16 5 -17 -7 -6 -16 14 -59 16 -59 2 0 -5 11 -10 24 -10 14 0 28 -4 31 -10 3
-5 0 -7 -9 -4 -9 3 -17 -3 -21 -17 -7 -21 -9 -21 -20 -6 -16 23 -25 21 -25 -3
0 -11 -7 -20 -15 -20 -8 0 -12 6 -9 14 3 7 -3 17 -13 20 -10 4 -19 2 -21 -3
-5 -14 -62 -14 -62 -1 0 6 -7 10 -15 10 -8 0 -15 6 -16 13 0 9 -2 9 -6 0 -7
-20 -23 -15 -23 6 0 11 -8 26 -18 33 -19 13 -26 48 -10 48 4 0 8 -9 8 -20 0
-12 7 -20 16 -20 13 0 15 6 9 27 -5 22 -4 25 8 15 8 -7 17 -8 21 -4z"/>
<path d="M571 2204 c0 -12 13 -35 29 -53 33 -34 32 -56 -2 -45 -15 4 -18 3
-13 -6 5 -8 4 -11 -3 -7 -15 10 -131 -52 -144 -77 -10 -19 -10 -20 5 -8 21 18
33 10 113 -67 42 -41 70 -61 80 -57 8 3 17 0 20 -8 3 -7 23 -16 44 -20 21 -3
45 -9 54 -12 9 -3 16 -2 16 2 0 5 -26 17 -58 28 -57 19 -133 64 -163 98 -9 10
-20 18 -25 18 -5 0 -17 8 -25 18 -13 15 -13 20 -3 30 7 7 18 12 24 12 11 0 20
4 85 37 39 20 41 20 80 2 22 -10 46 -19 53 -19 6 0 35 -11 62 -24 27 -13 59
-22 70 -19 15 4 -4 14 -62 33 -46 16 -96 31 -112 35 -33 7 -111 80 -119 110
-4 19 -5 19 -6 -1z"/>
<path d="M1874 2078 c3 -12 0 -18 -10 -18 -8 0 -17 -6 -20 -13 -4 -11 -40 -32
-116 -67 -15 -7 -35 -10 -45 -6 -14 6 -16 5 -6 -5 10 -10 5 -16 -25 -31 -39
-18 -31 -25 12 -8 17 6 26 6 26 0 0 -6 -4 -10 -10 -10 -5 0 -10 -5 -10 -11 0
-5 5 -7 10 -4 6 3 10 0 10 -7 0 -10 15 -12 57 -10 101 5 112 6 108 12 -5 9 22
30 41 30 3 0 -2 10 -10 22 -21 30 -22 61 -1 34 13 -17 15 -18 15 -3 0 9 4 17
9 17 5 0 11 11 13 25 3 14 1 25 -3 25 -5 0 -9 -9 -9 -20 0 -13 -7 -20 -20 -20
-17 0 -18 3 -10 26 7 17 7 31 -1 42 -10 16 -10 16 -5 0z"/>
</g>
</svg>
